<?xml version="1.0" encoding="UTF-8"?>
<svg xmlns="http://www.w3.org/2000/svg" xmlns:xlink="http://www.w3.org/1999/xlink" width="406.8pt" height="410pt" viewBox="0 0 406.8 410" version="1.1">
<defs>
<clipPath id="clip1">
  <path d="M 0 0 L 406.800781 0 L 406.800781 333 L 0 333 Z M 0 0 "/>
</clipPath>
<clipPath id="clip2">
  <path d="M 7 358 L 406.800781 358 L 406.800781 410 L 7 410 Z M 7 358 "/>
</clipPath>
</defs>
<g id="surface1">
<g clip-path="url(#clip1)" clip-rule="nonzero">
<path style=" stroke:none;fill-rule:evenodd;fill:rgb(0%,41.575623%,70.117188%);fill-opacity:1;" d="M 202.863281 -0.0273438 L 406.859375 332.644531 L 0.0625 332.644531 Z M 202.863281 -0.0273438 "/>
</g>
<g clip-path="url(#clip2)" clip-rule="nonzero">
<path style=" stroke:none;fill-rule:evenodd;fill:rgb(43.138123%,43.920898%,44.309998%);fill-opacity:1;" d="M 41.933594 388.792969 L 55.367188 392.859375 C 54.464844 396.625 53.042969 399.765625 51.105469 402.292969 C 49.164063 404.824219 46.746094 406.730469 43.871094 408.011719 C 40.996094 409.304688 37.339844 409.941406 32.902344 409.941406 C 27.511719 409.941406 23.097656 409.15625 19.691406 407.597656 C 16.273438 406.023438 13.316406 403.265625 10.832031 399.316406 C 8.359375 395.363281 7.113281 390.316406 7.113281 384.160156 C 7.113281 375.949219 9.292969 369.632813 13.660156 365.230469 C 18.027344 360.820313 24.207031 358.613281 32.1875 358.613281 C 38.4375 358.613281 43.34375 359.871094 46.921875 362.402344 C 50.503906 364.929688 53.160156 368.8125 54.894531 374.042969 L 41.359375 377.058594 C 40.882813 375.546875 40.386719 374.4375 39.867188 373.730469 C 39.011719 372.566406 37.960938 371.664063 36.726563 371.03125 C 35.480469 370.394531 34.09375 370.082031 32.558594 370.082031 C 29.09375 370.082031 26.421875 371.480469 24.578125 374.273438 C 23.179688 376.355469 22.472656 379.609375 22.472656 384.058594 C 22.472656 389.566406 23.316406 393.332031 24.980469 395.375 C 26.65625 397.421875 28.996094 398.4375 32.015625 398.4375 C 34.949219 398.4375 37.164063 397.617188 38.664063 395.964844 C 40.164063 394.324219 41.253906 391.933594 41.933594 388.792969 Z M 62.871094 359.457031 L 78.203125 359.457031 L 78.203125 376.816406 L 94.960938 376.816406 L 94.960938 359.457031 L 110.355469 359.457031 L 110.355469 409.0625 L 94.960938 409.0625 L 94.960938 389 L 78.203125 389 L 78.203125 409.0625 L 62.871094 409.0625 Z M 121.144531 359.457031 L 136.503906 359.457031 L 136.503906 409.0625 L 121.144531 409.0625 Z M 147.601563 359.457031 L 161.925781 359.457031 L 180.601563 386.898438 L 180.601563 359.457031 L 195.050781 359.457031 L 195.050781 409.0625 L 180.601563 409.0625 L 162.015625 381.828125 L 162.015625 409.0625 L 147.601563 409.0625 Z M 235.070313 400.875 L 217.605469 400.875 L 215.203125 409.0625 L 199.539063 409.0625 L 218.183594 359.457031 L 234.894531 359.457031 L 253.546875 409.0625 L 237.503906 409.0625 Z M 231.859375 390.144531 L 226.371094 372.3125 L 220.921875 390.144531 Z M 258.445313 359.457031 L 273.78125 359.457031 L 273.78125 396.84375 L 297.703125 396.84375 L 297.703125 409.0625 L 258.445313 409.0625 Z M 336.507813 388.792969 L 349.941406 392.859375 C 349.039063 396.625 347.621094 399.765625 345.679688 402.292969 C 343.738281 404.824219 341.324219 406.730469 338.449219 408.011719 C 335.574219 409.304688 331.914063 409.941406 327.476563 409.941406 C 322.078125 409.941406 317.671875 409.15625 314.265625 407.597656 C 310.847656 406.023438 307.890625 403.265625 305.40625 399.316406 C 302.933594 395.363281 301.6875 390.316406 301.6875 384.160156 C 301.6875 375.949219 303.871094 369.632813 308.234375 365.230469 C 312.601563 360.820313 318.78125 358.613281 326.761719 358.613281 C 333.007813 358.613281 337.914063 359.871094 341.496094 362.402344 C 345.078125 364.929688 347.734375 368.8125 349.46875 374.042969 L 335.933594 377.058594 C 335.453125 375.546875 334.960938 374.4375 334.441406 373.730469 C 333.585938 372.566406 332.535156 371.664063 331.300781 371.03125 C 330.054688 370.394531 328.664063 370.082031 327.132813 370.082031 C 323.664063 370.082031 320.996094 371.480469 319.148438 374.273438 C 317.753906 376.355469 317.046875 379.609375 317.046875 384.058594 C 317.046875 389.566406 317.890625 393.332031 319.554688 395.375 C 321.230469 397.421875 323.574219 398.4375 326.589844 398.4375 C 329.523438 398.4375 331.738281 397.617188 333.242188 395.964844 C 334.742188 394.324219 335.828125 391.933594 336.507813 388.792969 Z M 355.449219 384.289063 C 355.449219 376.191406 357.714844 369.886719 362.21875 365.382813 C 366.734375 360.867188 373.019531 358.613281 381.066406 358.613281 C 389.324219 358.613281 395.691406 360.832031 400.160156 365.265625 C 404.617188 369.691406 406.859375 375.902344 406.859375 383.882813 C 406.859375 389.683594 405.871094 394.441406 403.925781 398.148438 C 401.972656 401.855469 399.15625 404.742188 395.46875 406.8125 C 391.773438 408.878906 387.1875 409.90625 381.679688 409.90625 C 376.089844 409.90625 371.453125 409.015625 367.785156 407.238281 C 364.121094 405.449219 361.15625 402.628906 358.871094 398.773438 C 356.59375 394.914063 355.449219 390.085938 355.449219 384.289063 Z M 370.789063 384.359375 C 370.789063 389.371094 371.710938 392.960938 373.570313 395.15625 C 375.429688 397.339844 377.972656 398.4375 381.171875 398.4375 C 384.464844 398.4375 387.015625 397.363281 388.816406 395.226563 C 390.621094 393.078125 391.53125 389.230469 391.53125 383.6875 C 391.53125 379.011719 390.585938 375.601563 388.703125 373.445313 C 386.820313 371.296875 384.265625 370.222656 381.03125 370.222656 C 377.949219 370.222656 375.464844 371.308594 373.59375 373.5 C 371.722656 375.683594 370.789063 379.3125 370.789063 384.359375 Z M 370.789063 384.359375 "/>
</g>
<path style=" stroke:none;fill-rule:evenodd;fill:rgb(0%,41.575623%,70.117188%);fill-opacity:1;" d="M 206.789063 257.195313 L 341.113281 257.113281 L 308.441406 321.144531 L 58.707031 321.699219 L 225.132813 61.398438 L 329.808594 66.136719 Z M 206.789063 257.195313 "/>
<path style=" stroke:none;fill-rule:evenodd;fill:rgb(100%,100%,100%);fill-opacity:1;" d="M 74.039063 313.28125 L 229.585938 69.992188 L 314.867188 73.855469 L 191.414063 265.585938 L 327.414063 265.503906 L 303.304688 312.773438 Z M 74.039063 313.28125 "/>
</g>
</svg>
